<?xml version="1.0" encoding="UTF-8"?>
<!DOCTYPE svg PUBLIC "-//W3C//DTD SVG 1.1//EN" "http://www.w3.org/Graphics/SVG/1.1/DTD/svg11.dtd">
<svg xmlns="http://www.w3.org/2000/svg" version="1.1" width="512px" height="512px" style="shape-rendering:geometricPrecision; text-rendering:geometricPrecision; image-rendering:optimizeQuality; fill-rule:evenodd; clip-rule:evenodd" xmlns:xlink="http://www.w3.org/1999/xlink">
<g><path style="opacity:0.957" fill="#fe0000" d="M 235.5,0.5 C 342.697,-4.16195 424.197,38.8381 480,129.5C 510.142,186.19 519.142,246.19 507,309.5C 486.32,396.179 435.153,457.346 353.5,493C 314.89,508.16 274.89,513.827 233.5,510C 145,500.525 78.1664,457.692 33,381.5C 0.307719,319.197 -7.35895,253.863 10,185.5C 30.6638,118.005 71.4971,66.5047 132.5,31C 164.844,13.6023 199.178,3.43564 235.5,0.5 Z M 245.5,51.5 C 327.363,50.653 389.863,84.653 433,153.5C 460.714,201.966 467.714,253.299 454,307.5C 438.045,362.957 405.212,405.124 355.5,434C 307.674,459.756 257.341,466.09 204.5,453C 128.4,429.9 79.5667,380.067 58,303.5C 41.861,220.242 65.6944,151.075 129.5,96C 163.605,69.2432 202.272,54.4098 245.5,51.5 Z"/></g>
<g><path style="opacity:0.956" fill="#fe0000" d="M 341.5,129.5 C 357.955,144.121 373.621,159.621 388.5,176C 361.512,204.321 333.846,231.988 305.5,259C 333,286.5 360.5,314 388,341.5C 388.667,342.5 388.667,343.5 388,344.5C 373.5,359 359,373.5 344.5,388C 343.167,388.667 341.833,388.667 340.5,388C 312.972,360.805 285.805,333.305 259,305.5C 232.195,333.305 205.028,360.805 177.5,388C 176.167,388.667 174.833,388.667 173.5,388C 158.458,373.293 143.792,358.293 129.5,343C 156.793,314.707 184.459,286.707 212.5,259C 184.695,232.195 157.195,205.028 130,177.5C 129.333,176.5 129.333,175.5 130,174.5C 144.5,160 159,145.5 173.5,131C 174.833,130.333 176.167,130.333 177.5,131C 204.708,158.041 231.708,185.207 258.5,212.5C 286.521,185.146 314.188,157.479 341.5,129.5 Z"/></g>
</svg>
