<?xml version="1.0" encoding="UTF-8"?>
<!DOCTYPE svg PUBLIC "-//W3C//DTD SVG 1.1//EN" "http://www.w3.org/Graphics/SVG/1.1/DTD/svg11.dtd">
<svg xmlns="http://www.w3.org/2000/svg" version="1.1" width="512px" height="512px"
    style="shape-rendering:geometricPrecision; text-rendering:geometricPrecision; image-rendering:optimizeQuality; fill-rule:evenodd; clip-rule:evenodd"
    xmlns:xlink="http://www.w3.org/1999/xlink">
    <g>
        <path style="opacity:0.983" fill="#0d81fd"
            d="M 232.5,-0.5 C 247.833,-0.5 263.167,-0.5 278.5,-0.5C 368.144,10.3879 435.644,54.7213 481,132.5C 497.695,163.971 507.861,197.304 511.5,232.5C 511.5,247.833 511.5,263.167 511.5,278.5C 500.612,368.144 456.279,435.644 378.5,481C 347.03,497.695 313.697,507.861 278.5,511.5C 263.167,511.5 247.833,511.5 232.5,511.5C 142.856,500.612 75.3562,456.279 30,378.5C 13.3053,347.029 3.1386,313.696 -0.5,278.5C -0.5,263.167 -0.5,247.833 -0.5,232.5C 10.3879,142.856 54.7213,75.3562 132.5,30C 163.971,13.3053 197.304,3.1386 232.5,-0.5 Z M 253.5,31.5 C 336.447,34.0428 400.614,69.7095 446,138.5C 482.222,200.507 488.555,265.507 465,333.5C 431.467,414.041 371.634,461.874 285.5,477C 191.04,485.658 117.54,450.825 65,372.5C 28.7735,310.457 22.4402,245.457 46,177.5C 74.7185,106.448 125.885,60.2812 199.5,39C 217.404,34.7 235.404,32.2 253.5,31.5 Z" />
    </g>
    <g>
        <path style="opacity:0.986" fill="#0d81fd"
            d="M 247.5,109.5 C 275.978,107.811 289.145,121.144 287,149.5C 280.645,168.438 267.478,176.272 247.5,173C 228.562,166.645 220.728,153.478 224,133.5C 227.349,120.985 235.182,112.985 247.5,109.5 Z" />
    </g>
    <g>
        <path style="opacity:0.997" fill="#0d81fd"
            d="M 236.5,205.5 C 249.171,205.333 261.838,205.5 274.5,206C 280.667,208.167 284.833,212.333 287,218.5C 287.667,275.167 287.667,331.833 287,388.5C 284.833,394.667 280.667,398.833 274.5,401C 261.833,401.667 249.167,401.667 236.5,401C 230.333,398.833 226.167,394.667 224,388.5C 223.333,331.833 223.333,275.167 224,218.5C 226.353,212.315 230.52,207.982 236.5,205.5 Z" />
    </g>
</svg>