<svg version="1.1" id="Layer_1" xmlns="http://www.w3.org/2000/svg" xmlns:xlink="http://www.w3.org/1999/xlink" x="0px"
	y="0px" width="100%" viewBox="0 0 500 500" enable-background="new 0 0 500 500" xml:space="preserve">
	<path fill="#09ff00" opacity="1.000000" stroke="none" d="
M1.000000,264.000000 
	C1.000000,259.310730 1.000000,254.621490 1.152754,249.122742 
	C1.203672,245.875488 1.101836,243.437744 1.000000,241.000000 
	C1.000000,240.250000 1.000000,239.500000 1.142003,238.107880 
	C1.189337,236.310516 1.094668,235.155258 0.999999,234.000000 
	C1.000000,229.975449 1.000000,225.950912 1.419492,221.550842 
	C2.318618,218.348022 2.629695,215.479675 3.306652,212.700439 
	C6.478489,199.678421 9.549057,186.626480 13.037590,173.688156 
	C17.631163,156.651428 25.229227,140.790970 34.066612,125.661880 
	C44.418678,107.939743 56.215843,91.132751 71.307076,76.970169 
	C80.865135,68.000275 89.967110,58.369453 100.414352,50.561329 
	C117.875229,37.511311 136.753830,26.666517 157.274994,18.820747 
	C177.434082,11.113404 197.969315,5.154684 219.507706,2.946089 
	C220.395645,2.855038 221.171783,1.673493 222.000000,0.999999 
	C239.687561,1.000000 257.375122,1.000000 275.384216,1.376577 
	C278.790497,2.200699 281.904938,2.502303 284.954803,3.121746 
	C296.497040,5.466026 308.228912,7.190206 319.503540,10.472945 
	C342.860992,17.273727 365.164948,26.730724 385.594971,40.164200 
	C404.956360,52.895012 422.369385,67.797600 437.854584,85.160767 
	C450.851257,99.733643 461.942383,115.441650 471.231476,132.546280 
	C485.783112,159.341263 495.284119,187.745148 499.049561,218.043503 
	C499.139282,218.765320 500.325287,219.350891 501.000000,220.000000 
	C501.000000,240.687561 501.000000,261.375122 500.589020,282.415955 
	C499.760315,283.595825 499.121704,284.381561 498.959747,285.255585 
	C497.645416,292.347534 496.609436,299.495514 495.134277,306.552368 
	C489.774994,332.189636 479.867279,356.058105 466.668304,378.605621 
	C452.248535,403.238739 433.974915,424.732452 412.185272,443.030670 
	C392.987152,459.152618 371.718079,472.123596 348.456604,481.793793 
	C328.151093,490.235168 307.259338,496.250275 285.429749,499.009796 
	C284.550018,499.120972 283.806824,500.312073 283.000000,501.000000 
	C262.645782,501.000000 242.291550,501.000000 221.801636,500.803070 
	C220.222763,500.055695 218.822464,499.303009 217.329681,498.986481 
	C204.027115,496.165802 190.419464,494.378510 177.452332,490.463104 
	C147.462570,481.407623 120.204330,466.976166 95.518906,447.389221 
	C78.531151,433.910065 63.571499,418.599915 50.483723,401.545746 
	C35.243668,381.687073 23.823353,359.573822 15.486401,335.927765 
	C9.585841,319.192078 4.896452,302.162872 3.004815,284.445099 
	C2.911248,283.568726 1.694010,282.812286 0.999999,282.000000 
	C1.000000,277.975464 1.000000,273.950897 1.154994,269.172638 
	C1.206658,266.945953 1.103329,265.472961 1.000000,264.000000 
M121.652824,66.065498 
	C106.702377,77.551208 92.518578,89.774796 80.146355,104.172371 
	C68.367134,117.879883 58.520691,132.763687 50.121941,148.631760 
	C36.477482,174.410736 28.614920,202.123138 26.263866,231.028336 
	C24.558699,251.992661 25.221918,273.203674 29.161997,294.002991 
	C32.396076,311.075378 37.633183,327.691345 44.898228,343.479736 
	C58.690975,373.454041 77.586967,399.659912 102.721779,421.409729 
	C116.293571,433.153717 130.951996,443.136566 146.564636,451.676117 
	C165.154907,461.844391 185.145538,468.719116 205.894638,472.850281 
	C216.817261,475.024963 228.055099,475.777985 239.190170,476.689941 
	C261.597687,478.525177 283.666260,475.774261 305.337219,470.255524 
	C321.081055,466.246216 336.148499,460.398804 350.904266,453.330994 
	C370.280731,444.049957 387.189240,431.375153 403.378906,417.755768 
	C412.342133,410.215546 420.347870,401.185242 427.359894,391.765625 
	C436.345825,379.694214 444.606934,366.947723 451.893250,353.779877 
	C461.738556,335.987488 468.636383,316.851654 471.887604,296.702972 
	C474.177917,282.509491 475.692017,268.165771 476.900696,253.834137 
	C477.437988,247.463272 476.690948,240.919739 475.955566,234.520248 
	C474.700287,223.596924 473.611633,212.594604 471.336517,201.862122 
	C467.741974,184.905304 462.329651,168.444916 454.034119,153.115433 
	C448.378937,142.665039 443.259033,131.767578 436.347473,122.190231 
	C425.131500,106.648300 412.362854,92.346939 397.539032,79.925484 
	C384.154846,68.710373 369.944366,58.858475 354.493622,50.789371 
	C336.772400,41.534500 318.272888,34.288677 298.535645,30.759226 
	C287.297577,28.749613 275.957092,27.022236 264.587219,26.129105 
	C254.885162,25.366989 245.044586,25.496704 235.321793,26.117224 
	C225.704117,26.731033 215.908020,27.495678 206.636063,29.907959 
	C191.712814,33.790546 176.700806,38.020092 162.573196,44.078087 
	C148.618774,50.061817 135.714859,58.495422 121.652824,66.065498 
z" />
	<path fill="rgba(255,255,255,0)" opacity="1.000000" stroke="none" d="
M501.000000,219.531342 
	C500.325287,219.350891 499.139282,218.765320 499.049561,218.043503 
	C495.284119,187.745148 485.783112,159.341263 471.231476,132.546280 
	C461.942383,115.441650 450.851257,99.733643 437.854584,85.160767 
	C422.369385,67.797600 404.956360,52.895012 385.594971,40.164200 
	C365.164948,26.730724 342.860992,17.273727 319.503540,10.472945 
	C308.228912,7.190206 296.497040,5.466026 284.954803,3.121746 
	C281.904938,2.502303 278.790497,2.200699 275.852844,1.376577 
	C350.926056,1.000000 425.852081,1.000000 501.000000,1.000000 
	C501.000000,73.687408 501.000000,146.375046 501.000000,219.531342 
z" />
	<path fill="rgba(254,254,254,0)" opacity="1.000000" stroke="none" d="
M221.531342,0.999999 
	C221.171783,1.673493 220.395645,2.855038 219.507706,2.946089 
	C197.969315,5.154684 177.434082,11.113404 157.274994,18.820747 
	C136.753830,26.666517 117.875229,37.511311 100.414352,50.561329 
	C89.967110,58.369453 80.865135,68.000275 71.307076,76.970169 
	C56.215843,91.132751 44.418678,107.939743 34.066612,125.661880 
	C25.229227,140.790970 17.631163,156.651428 13.037590,173.688156 
	C9.549057,186.626480 6.478489,199.678421 3.306652,212.700439 
	C2.629695,215.479675 2.318618,218.348022 1.419492,221.087662 
	C1.000000,147.739456 1.000000,74.478920 1.000000,1.000000 
	C74.354080,1.000000 147.708389,1.000000 221.531342,0.999999 
z" />
	<path fill="rgba(255,255,255,0)" opacity="1.000000" stroke="none" d="
M0.999999,282.468658 
	C1.694010,282.812286 2.911248,283.568726 3.004815,284.445099 
	C4.896452,302.162872 9.585841,319.192078 15.486401,335.927765 
	C23.823353,359.573822 35.243668,381.687073 50.483723,401.545746 
	C63.571499,418.599915 78.531151,433.910065 95.518906,447.389221 
	C120.204330,466.976166 147.462570,481.407623 177.452332,490.463104 
	C190.419464,494.378510 204.027115,496.165802 217.329681,498.986481 
	C218.822464,499.303009 220.222763,500.055695 221.332977,500.803070 
	C147.739807,501.000000 74.479607,501.000000 1.000000,501.000000 
	C1.000000,428.312592 1.000000,355.624939 0.999999,282.468658 
z" />
	<path fill="rgba(255,255,255,0)" opacity="1.000000" stroke="none" d="
M283.468658,501.000000 
	C283.806824,500.312073 284.550018,499.120972 285.429749,499.009796 
	C307.259338,496.250275 328.151093,490.235168 348.456604,481.793793 
	C371.718079,472.123596 392.987152,459.152618 412.185272,443.030670 
	C433.974915,424.732452 452.248535,403.238739 466.668304,378.605621 
	C479.867279,356.058105 489.774994,332.189636 495.134277,306.552368 
	C496.609436,299.495514 497.645416,292.347534 498.959747,285.255585 
	C499.121704,284.381561 499.760315,283.595825 500.589020,282.884583 
	C501.000000,355.593689 501.000000,428.187408 501.000000,501.000000 
	C428.645905,501.000000 356.291626,501.000000 283.468658,501.000000 
z" />
	<path fill="#09ff00" opacity="1.000000" stroke="none" d="
M1.000000,241.444168 
	C1.101836,243.437744 1.203672,245.875488 1.152754,248.656616 
	C1.000000,246.629440 1.000000,244.258896 1.000000,241.444168 
z" />
	<path fill="#09ff00" opacity="1.000000" stroke="none" d="
M1.000000,264.416656 
	C1.103329,265.472961 1.206658,266.945953 1.154994,268.709473 
	C1.000000,267.611115 1.000000,266.222198 1.000000,264.416656 
z" />
	<path fill="#09ff00" opacity="1.000000" stroke="none" d="
M0.999999,234.399994 
	C1.094668,235.155258 1.189337,236.310516 1.142003,237.732880 
	C1.000000,236.933334 1.000000,235.866653 0.999999,234.399994 
z" />
	<path fill="rgba(255,255,255,0)" opacity="1.000000" stroke="none" d="
M122.001457,65.959900 
	C135.714859,58.495422 148.618774,50.061817 162.573196,44.078087 
	C176.700806,38.020092 191.712814,33.790546 206.636063,29.907959 
	C215.908020,27.495678 225.704117,26.731033 235.321793,26.117224 
	C245.044586,25.496704 254.885162,25.366989 264.587219,26.129105 
	C275.957092,27.022236 287.297577,28.749613 298.535645,30.759226 
	C318.272888,34.288677 336.772400,41.534500 354.493622,50.789371 
	C369.944366,58.858475 384.154846,68.710373 397.539032,79.925484 
	C412.362854,92.346939 425.131500,106.648300 436.347473,122.190231 
	C443.259033,131.767578 448.378937,142.665039 454.034119,153.115433 
	C462.329651,168.444916 467.741974,184.905304 471.336517,201.862122 
	C473.611633,212.594604 474.700287,223.596924 475.955566,234.520248 
	C476.690948,240.919739 477.437988,247.463272 476.900696,253.834137 
	C475.692017,268.165771 474.177917,282.509491 471.887604,296.702972 
	C468.636383,316.851654 461.738556,335.987488 451.893250,353.779877 
	C444.606934,366.947723 436.345825,379.694214 427.359894,391.765625 
	C420.347870,401.185242 412.342133,410.215546 403.378906,417.755768 
	C387.189240,431.375153 370.280731,444.049957 350.904266,453.330994 
	C336.148499,460.398804 321.081055,466.246216 305.337219,470.255524 
	C283.666260,475.774261 261.597687,478.525177 239.190170,476.689941 
	C228.055099,475.777985 216.817261,475.024963 205.894638,472.850281 
	C185.145538,468.719116 165.154907,461.844391 146.564636,451.676117 
	C130.951996,443.136566 116.293571,433.153717 102.721779,421.409729 
	C77.586967,399.659912 58.690975,373.454041 44.898228,343.479736 
	C37.633183,327.691345 32.396076,311.075378 29.161997,294.002991 
	C25.221918,273.203674 24.558699,251.992661 26.263866,231.028336 
	C28.614920,202.123138 36.477482,174.410736 50.121941,148.631760 
	C58.520691,132.763687 68.367134,117.879883 80.146355,104.172371 
	C92.518578,89.774796 106.702377,77.551208 122.001457,65.959900 
M358.605133,127.041016 
	C353.648438,131.965240 348.708862,136.906845 343.731659,141.810257 
	C331.702271,153.661209 319.419525,165.266373 307.688049,177.404739 
	C297.800018,187.635757 288.478424,198.419357 279.025299,209.064255 
	C267.653534,221.869690 255.822769,234.327499 245.258820,247.774887 
	C232.636871,263.842010 221.056976,280.734344 209.201874,297.394592 
	C203.286026,305.708282 197.779251,314.312561 192.043213,322.755341 
	C191.196808,324.001099 190.105148,325.080261 189.186020,326.166718 
	C181.063080,317.204559 173.697510,308.482758 165.697372,300.388123 
	C153.093582,287.635376 140.254303,275.099426 127.144501,262.868469 
	C118.736900,255.024521 109.440361,248.135574 100.995674,240.328140 
	C97.418564,237.020966 95.598373,238.436737 93.447777,241.252274 
	C86.244736,250.682434 79.299011,260.318512 71.848038,269.547363 
	C64.123444,279.115143 56.006123,288.371765 47.878010,297.603760 
	C45.797565,299.966766 44.849007,301.189362 48.016506,303.653809 
	C55.423828,309.416992 62.534328,315.579010 69.560600,321.810059 
	C77.337433,328.706665 84.890076,335.856201 92.534111,342.902374 
	C104.042633,353.510803 115.788727,363.876678 126.972946,374.816833 
	C135.671326,383.325348 143.728271,392.496124 151.957794,401.475677 
	C160.881149,411.212250 169.734619,421.014648 178.502945,430.890961 
	C184.396378,437.529053 190.088913,444.345490 195.895645,451.110443 
	C208.477097,433.526581 220.627121,416.404175 232.930649,399.392792 
	C243.695389,384.508972 254.235245,369.437378 265.584412,355.007111 
	C283.793671,331.854431 302.226868,308.855988 321.258270,286.379028 
	C334.972595,270.181732 349.537628,254.673584 364.238190,239.352158 
	C376.314056,226.766281 388.779724,214.497849 401.750031,202.842606 
	C414.597931,191.297379 428.293488,180.695450 441.169189,170.050278 
	C425.341125,145.768478 409.336029,121.215042 393.039246,96.214149 
	C382.012817,106.077820 370.574799,116.309677 358.605133,127.041016 
z" />
	<path fill="#09ff00" opacity="1.000000" stroke="none" d="
M358.870972,126.791275 
	C370.574799,116.309677 382.012817,106.077820 393.039246,96.214149 
	C409.336029,121.215042 425.341125,145.768478 441.169189,170.050278 
	C428.293488,180.695450 414.597931,191.297379 401.750031,202.842606 
	C388.779724,214.497849 376.314056,226.766281 364.238190,239.352158 
	C349.537628,254.673584 334.972595,270.181732 321.258270,286.379028 
	C302.226868,308.855988 283.793671,331.854431 265.584412,355.007111 
	C254.235245,369.437378 243.695389,384.508972 232.930649,399.392792 
	C220.627121,416.404175 208.477097,433.526581 195.895645,451.110443 
	C190.088913,444.345490 184.396378,437.529053 178.502945,430.890961 
	C169.734619,421.014648 160.881149,411.212250 151.957794,401.475677 
	C143.728271,392.496124 135.671326,383.325348 126.972946,374.816833 
	C115.788727,363.876678 104.042633,353.510803 92.534111,342.902374 
	C84.890076,335.856201 77.337433,328.706665 69.560600,321.810059 
	C62.534328,315.579010 55.423828,309.416992 48.016506,303.653809 
	C44.849007,301.189362 45.797565,299.966766 47.878010,297.603760 
	C56.006123,288.371765 64.123444,279.115143 71.848038,269.547363 
	C79.299011,260.318512 86.244736,250.682434 93.447777,241.252274 
	C95.598373,238.436737 97.418564,237.020966 100.995674,240.328140 
	C109.440361,248.135574 118.736900,255.024521 127.144501,262.868469 
	C140.254303,275.099426 153.093582,287.635376 165.697372,300.388123 
	C173.697510,308.482758 181.063080,317.204559 189.186020,326.166718 
	C190.105148,325.080261 191.196808,324.001099 192.043213,322.755341 
	C197.779251,314.312561 203.286026,305.708282 209.201874,297.394592 
	C221.056976,280.734344 232.636871,263.842010 245.258820,247.774887 
	C255.822769,234.327499 267.653534,221.869690 279.025299,209.064255 
	C288.478424,198.419357 297.800018,187.635757 307.688049,177.404739 
	C319.419525,165.266373 331.702271,153.661209 343.731659,141.810257 
	C348.708862,136.906845 353.648438,131.965240 358.870972,126.791275 
z" />
</svg>