<?xml version="1.0" encoding="UTF-8"?>
<!DOCTYPE svg PUBLIC "-//W3C//DTD SVG 1.1//EN" "http://www.w3.org/Graphics/SVG/1.1/DTD/svg11.dtd">
<svg xmlns="http://www.w3.org/2000/svg" version="1.1" width="980px" height="980px" style="shape-rendering:geometricPrecision; text-rendering:geometricPrecision; image-rendering:optimizeQuality; fill-rule:evenodd; clip-rule:evenodd" xmlns:xlink="http://www.w3.org/1999/xlink">
<g><path style="opacity:1" fill="#fcdb29" d="M 454.5,-0.5 C 477.833,-0.5 501.167,-0.5 524.5,-0.5C 536.862,0.920322 549.196,2.58699 561.5,4.5C 557.154,4.33432 552.821,4.50098 548.5,5C 550.229,6.7889 550.896,8.95557 550.5,11.5C 554.198,11.8056 557.698,11.139 561,9.5C 562.319,10.3185 563.485,11.3185 564.5,12.5C 563.008,14.1565 561.342,15.6565 559.5,17C 551.984,18.7572 545.317,17.2572 539.5,12.5C 538.626,10.2534 538.292,7.92006 538.5,5.5C 537.393,3.75171 535.226,2.75171 532,2.5C 528.464,3.43461 524.964,3.43461 521.5,2.5C 519.028,3.9917 516.361,4.65836 513.5,4.5C 513.178,6.72241 513.845,8.55575 515.5,10C 520.11,12.134 524.61,11.9673 529,9.5C 531.356,10.8927 531.856,12.726 530.5,15C 523.456,18.1944 516.456,18.1944 509.5,15C 505.865,10.9504 503.865,6.11708 503.5,0.5C 500.36,0.946037 497.693,2.27937 495.5,4.5C 494.635,8.68273 493.301,12.6827 491.5,16.5C 488.232,17.487 484.898,17.8204 481.5,17.5C 480.3,12.2438 478.3,7.2438 475.5,2.5C 471.682,2.66972 467.682,2.66972 463.5,2.5C 463.721,6.79539 462.388,7.46205 459.5,4.5C 461.027,2.66955 460.527,1.66955 458,1.5C 453.909,1.72479 450.409,3.22479 447.5,6C 448.894,6.95603 449.561,8.28937 449.5,10C 448.039,19.5912 443.705,27.5912 436.5,34C 428.036,40.6423 418.369,43.4756 407.5,42.5C 397.736,42.9674 389.069,40.134 381.5,34C 377.631,30.3683 374.131,26.5349 371,22.5C 370.588,20.0031 369.422,18.0031 367.5,16.5C 365.522,18.5306 365.522,20.1972 367.5,21.5C 366.171,24.6945 364.505,25.0278 362.5,22.5C 359.173,24.7217 355.506,25.8884 351.5,26C 350.25,28.625 348.25,29.625 345.5,29C 348.167,28 348.167,27 345.5,26C 351.083,25.4904 351.583,23.9904 347,21.5C 342.665,21.9033 338.832,23.4033 335.5,26C 332.812,26.3924 330.145,26.8924 327.5,27.5C 326.584,27.4573 325.917,27.1239 325.5,26.5C 367.467,11.9743 410.467,2.97432 454.5,-0.5 Z"/></g>
<g><path style="opacity:1" fill="#fdd914" d="M 561.5,4.5 C 564.968,5.87273 568.634,6.87273 572.5,7.5C 572.343,8.87344 572.51,10.2068 573,11.5C 574.078,9.60953 575.745,8.60953 578,8.5C 583.766,10.0262 589.6,11.1928 595.5,12C 598.358,14.0176 601.524,15.5176 605,16.5C 609.419,16.1487 613.919,16.1487 618.5,16.5C 734.55,48.9428 826.55,114.609 894.5,213.5C 894.854,216.421 893.854,218.754 891.5,220.5C 893.343,220.755 895.343,220.922 897.5,221C 898.167,222 898.833,223 899.5,224C 897.789,225.435 896.622,227.269 896,229.5C 893.167,226 890,222.833 886.5,220C 877.918,217.796 870.751,219.963 865,226.5C 863.354,224.945 863.021,223.279 864,221.5C 862.333,219.372 860.166,218.039 857.5,217.5C 856.273,216.41 855.44,215.076 855,213.5C 854.667,213.833 854.333,214.167 854,214.5C 853.517,213.552 853.351,212.552 853.5,211.5C 849.111,209.536 845.278,210.203 842,213.5C 841.907,216.007 841.074,218.174 839.5,220C 840.623,221.044 841.956,221.71 843.5,222C 840.124,222.307 838.79,224.14 839.5,227.5C 843.172,228.045 842.838,228.378 838.5,228.5C 838.702,226.011 838.202,223.677 837,221.5C 836.311,222.357 835.478,223.023 834.5,223.5C 817.892,217.476 808.892,223.143 807.5,240.5C 806.201,239.91 805.368,238.91 805,237.5C 803.6,233.135 802.1,228.801 800.5,224.5C 796.185,222.443 792.019,221.11 788,220.5C 787.667,219.167 787.333,217.833 787,216.5C 785.989,217.337 784.822,217.67 783.5,217.5C 720.851,151.666 644.518,110.666 554.5,94.5C 552.695,92.8031 550.361,91.9698 547.5,92C 548.5,91.6667 549.5,91.3333 550.5,91C 548.447,89.9197 546.28,89.0864 544,88.5C 513.578,88.4935 483.078,88.6602 452.5,89C 446.69,90.5728 440.857,90.7394 435,89.5C 431.533,90.9978 427.866,91.9978 424,92.5C 422.624,92.6842 421.791,93.3509 421.5,94.5C 414.509,95.3314 407.509,96.1647 400.5,97C 397.808,97.7433 395.475,98.91 393.5,100.5C 318.072,120.197 253.405,157.863 199.5,213.5C 196.956,213.104 194.789,213.771 193,215.5C 192.667,215.167 192.333,214.833 192,214.5C 191.493,215.996 191.993,217.163 193.5,218C 192.216,218.684 191.049,218.517 190,217.5C 189.333,219.5 188.667,221.5 188,223.5C 187.086,222.346 186.253,222.513 185.5,224C 186.647,225.281 186.313,225.614 184.5,225C 183.711,221.903 182.544,221.736 181,224.5C 180.104,209.939 173.271,198.772 160.5,191C 156.152,190.427 151.819,189.76 147.5,189C 140.102,188.977 132.768,189.81 125.5,191.5C 120.711,193.585 116.377,196.252 112.5,199.5C 110.926,200.631 109.259,200.798 107.5,200C 109.706,197.791 110.04,195.291 108.5,192.5C 110.839,190.501 111.506,188.168 110.5,185.5C 109.808,186.025 109.308,186.692 109,187.5C 108.5,186.333 107.667,185.5 106.5,185C 109.339,183.08 112.339,181.413 115.5,180C 117.037,178.89 117.703,177.39 117.5,175.5C 119.124,175.64 120.29,174.973 121,173.5C 121.414,173.957 121.914,174.291 122.5,174.5C 123.281,173.271 123.781,171.938 124,170.5C 126.869,173.318 128.369,172.652 128.5,168.5C 125.886,168.723 124.219,167.556 123.5,165C 126.472,161.194 129.972,158.027 134,155.5C 135.418,153.261 136.585,150.928 137.5,148.5C 190.476,93.3176 253.143,52.651 325.5,26.5C 325.917,27.1239 326.584,27.4573 327.5,27.5C 330.145,26.8924 332.812,26.3924 335.5,26C 338.832,23.4033 342.665,21.9033 347,21.5C 351.583,23.9904 351.083,25.4904 345.5,26C 348.167,27 348.167,28 345.5,29C 348.25,29.625 350.25,28.625 351.5,26C 355.506,25.8884 359.173,24.7217 362.5,22.5C 364.505,25.0278 366.171,24.6945 367.5,21.5C 365.522,20.1972 365.522,18.5306 367.5,16.5C 369.422,18.0031 370.588,20.0031 371,22.5C 374.131,26.5349 377.631,30.3683 381.5,34C 389.069,40.134 397.736,42.9674 407.5,42.5C 418.369,43.4756 428.036,40.6423 436.5,34C 443.705,27.5912 448.039,19.5912 449.5,10C 449.561,8.28937 448.894,6.95603 447.5,6C 450.409,3.22479 453.909,1.72479 458,1.5C 460.527,1.66955 461.027,2.66955 459.5,4.5C 462.388,7.46205 463.721,6.79539 463.5,2.5C 467.682,2.66972 471.682,2.66972 475.5,2.5C 478.3,7.2438 480.3,12.2438 481.5,17.5C 484.898,17.8204 488.232,17.487 491.5,16.5C 493.301,12.6827 494.635,8.68273 495.5,4.5C 497.693,2.27937 500.36,0.946037 503.5,0.5C 503.865,6.11708 505.865,10.9504 509.5,15C 516.456,18.1944 523.456,18.1944 530.5,15C 531.856,12.726 531.356,10.8927 529,9.5C 524.61,11.9673 520.11,12.134 515.5,10C 513.845,8.55575 513.178,6.72241 513.5,4.5C 516.361,4.65836 519.028,3.9917 521.5,2.5C 524.964,3.43461 528.464,3.43461 532,2.5C 535.226,2.75171 537.393,3.75171 538.5,5.5C 538.292,7.92006 538.626,10.2534 539.5,12.5C 545.317,17.2572 551.984,18.7572 559.5,17C 561.342,15.6565 563.008,14.1565 564.5,12.5C 563.485,11.3185 562.319,10.3185 561,9.5C 557.698,11.139 554.198,11.8056 550.5,11.5C 550.896,8.95557 550.229,6.7889 548.5,5C 552.821,4.50098 557.154,4.33432 561.5,4.5 Z"/></g>
<g><path style="opacity:0.996" fill="#f3da45" d="M 561.5,4.5 C 580.989,6.72994 599.989,10.7299 618.5,16.5C 613.919,16.1487 609.419,16.1487 605,16.5C 601.524,15.5176 598.358,14.0176 595.5,12C 589.6,11.1928 583.766,10.0262 578,8.5C 575.745,8.60953 574.078,9.60953 573,11.5C 572.51,10.2068 572.343,8.87344 572.5,7.5C 568.634,6.87273 564.968,5.87273 561.5,4.5 Z"/></g>
<g><path style="opacity:0.976" fill="#f6dc43" d="M 554.5,94.5 C 510.174,87.8747 465.841,87.8747 421.5,94.5C 421.791,93.3509 422.624,92.6842 424,92.5C 427.866,91.9978 431.533,90.9978 435,89.5C 440.857,90.7394 446.69,90.5728 452.5,89C 483.078,88.6602 513.578,88.4935 544,88.5C 546.28,89.0864 548.447,89.9197 550.5,91C 549.5,91.3333 548.5,91.6667 547.5,92C 550.361,91.9698 552.695,92.8031 554.5,94.5 Z"/></g>
<g><path style="opacity:0.894" fill="#f5dc53" d="M 421.5,94.5 C 412.348,96.7838 403.015,98.7838 393.5,100.5C 395.475,98.91 397.808,97.7433 400.5,97C 407.509,96.1647 414.509,95.3314 421.5,94.5 Z"/></g>
<g><path style="opacity:1" fill="#fdd913" d="M 558.5,266.5 C 558.19,265.262 557.69,265.262 557,266.5C 553.527,275.76 552.693,285.26 554.5,295C 553.226,318.836 551.226,342.502 548.5,366C 548.501,370.015 548.835,373.849 549.5,377.5C 549.5,378.167 549.167,378.5 548.5,378.5C 547.883,378.611 547.383,378.944 547,379.5C 545.174,384.777 545.007,390.11 546.5,395.5C 543.886,411.629 542.553,427.962 542.5,444.5C 540.715,449.067 539.882,454.067 540,459.5C 539.047,461.592 537.714,461.925 536,460.5C 535.667,461.833 535.333,463.167 535,464.5C 534.206,461.529 533.539,458.529 533,455.5C 530.425,456.864 528.425,456.198 527,453.5C 520.17,451.703 513.67,452.37 507.5,455.5C 505.31,454.252 504.977,452.586 506.5,450.5C 506.081,449.328 505.415,448.328 504.5,447.5C 501.562,446.425 498.562,446.259 495.5,447C 492.988,452.548 491.488,458.382 491,464.5C 489.859,468.116 488.192,471.449 486,474.5C 481.967,465.569 479.467,456.236 478.5,446.5C 475.102,446.18 471.768,446.513 468.5,447.5C 467.762,451.129 467.929,454.796 469,458.5C 472.197,466.422 475.197,474.422 478,482.5C 479,484.833 480.667,486.5 483,487.5C 484.667,486.167 486.333,486.167 488,487.5C 489.491,485.996 491.324,485.163 493.5,485C 496.806,479.298 498.973,473.131 500,466.5C 500.667,465.833 501.333,465.167 502,464.5C 499.72,470.569 500.887,476.069 505.5,481C 504.027,481.71 503.36,482.876 503.5,484.5C 507.42,486.131 511.087,488.298 514.5,491C 519.926,491.259 525.26,491.426 530.5,491.5C 530.413,494.734 530.913,498.067 532,501.5C 533.206,498.488 534.54,495.488 536,492.5C 536.08,495.638 535.913,498.804 535.5,502C 535.36,505.15 536.027,507.983 537.5,510.5C 537.5,511.167 537.167,511.5 536.5,511.5C 534.7,517.758 533.867,524.425 534,531.5C 532.535,527.111 530.701,526.778 528.5,530.5C 529.402,533.04 530.402,535.54 531.5,538C 531.355,538.772 531.022,539.439 530.5,540C 531.592,543.55 532.259,547.217 532.5,551C 530.911,556.521 529.245,562.021 527.5,567.5C 528.373,570.118 529.039,572.784 529.5,575.5C 529.14,577.421 528.306,579.088 527,580.5C 526.5,594.496 526.333,608.496 526.5,622.5C 525.965,634.398 520.631,643.565 510.5,650C 493.645,657.562 479.145,654.396 467,640.5C 465.667,637.833 464.333,635.167 463,632.5C 460.515,620.634 459.015,608.634 458.5,596.5C 458.867,587.865 457.867,579.532 455.5,571.5C 455.5,571.167 455.5,570.833 455.5,570.5C 455.164,556.774 454.164,543.107 452.5,529.5C 452.253,528.287 451.586,527.62 450.5,527.5C 450.83,520.8 450.497,514.134 449.5,507.5C 447.903,497.014 446.236,486.68 444.5,476.5C 444.5,476.167 444.5,475.833 444.5,475.5C 443.993,463.152 443.16,450.819 442,438.5C 440.957,436.167 440.124,433.834 439.5,431.5C 434.989,393.244 430.322,354.911 425.5,316.5C 426.165,313.183 426.499,309.683 426.5,306C 425.003,294.193 424.169,282.36 424,270.5C 424.822,268.212 425.489,265.878 426,263.5C 428.973,261.194 431.64,258.527 434,255.5C 437.983,244.38 442.149,233.38 446.5,222.5C 443.572,221.516 440.572,221.183 437.5,221.5C 436.299,228.567 433.966,235.234 430.5,241.5C 427.728,234.747 425.728,227.747 424.5,220.5C 425.655,217.989 426.322,215.322 426.5,212.5C 439.814,188.25 460.48,175.25 488.5,173.5C 518.257,174.798 540.09,188.465 554,214.5C 560.843,231.477 562.343,248.81 558.5,266.5 Z"/></g>
<g><path style="opacity:1" fill="#fcdc28" d="M 137.5,148.5 C 136.585,150.928 135.418,153.261 134,155.5C 129.972,158.027 126.472,161.194 123.5,165C 124.219,167.556 125.886,168.723 128.5,168.5C 128.369,172.652 126.869,173.318 124,170.5C 123.781,171.938 123.281,173.271 122.5,174.5C 121.914,174.291 121.414,173.957 121,173.5C 120.29,174.973 119.124,175.64 117.5,175.5C 117.703,177.39 117.037,178.89 115.5,180C 112.339,181.413 109.339,183.08 106.5,185C 107.667,185.5 108.5,186.333 109,187.5C 109.308,186.692 109.808,186.025 110.5,185.5C 111.506,188.168 110.839,190.501 108.5,192.5C 110.04,195.291 109.706,197.791 107.5,200C 109.259,200.798 110.926,200.631 112.5,199.5C 116.377,196.252 120.711,193.585 125.5,191.5C 132.768,189.81 140.102,188.977 147.5,189C 151.819,189.76 156.152,190.427 160.5,191C 173.271,198.772 180.104,209.939 181,224.5C 182.544,221.736 183.711,221.903 184.5,225C 186.313,225.614 186.647,225.281 185.5,224C 186.253,222.513 187.086,222.346 188,223.5C 188.667,221.5 189.333,219.5 190,217.5C 191.049,218.517 192.216,218.684 193.5,218C 191.993,217.163 191.493,215.996 192,214.5C 192.333,214.833 192.667,215.167 193,215.5C 194.789,213.771 196.956,213.104 199.5,213.5C 177.569,236.725 158.569,262.058 142.5,289.5C 142.336,286.813 142.503,284.146 143,281.5C 144.678,280.534 145.345,279.201 145,277.5C 130.352,280.341 117.352,277.008 106,267.5C 102.333,262.5 98.6667,257.5 95,252.5C 94,248.167 93,243.833 92,239.5C 91.9336,231.729 91.2669,224.062 90,216.5C 85.9024,213.008 83.9024,214.008 84,219.5C 82.9887,220.337 81.8221,220.67 80.5,220.5C 80.3739,222.2 79.7073,223.7 78.5,225C 79.2335,226.766 79.5668,228.599 79.5,230.5C 78.0695,230.579 76.7362,230.246 75.5,229.5C 74.8333,231.167 74.1667,232.833 73.5,234.5C 72.5832,235.127 71.5832,235.461 70.5,235.5C 84.8176,211.003 101.318,188.003 120,166.5C 125.337,159.996 131.171,153.996 137.5,148.5 Z"/></g>
<g><path style="opacity:1" fill="#fbdb2e" d="M 426.5,212.5 C 426.322,215.322 425.655,217.989 424.5,220.5C 425.728,227.747 427.728,234.747 430.5,241.5C 433.966,235.234 436.299,228.567 437.5,221.5C 440.572,221.183 443.572,221.516 446.5,222.5C 442.149,233.38 437.983,244.38 434,255.5C 431.64,258.527 428.973,261.194 426,263.5C 425.489,265.878 424.822,268.212 424,270.5C 424.169,282.36 425.003,294.193 426.5,306C 426.499,309.683 426.165,313.183 425.5,316.5C 422.874,292.532 420.541,268.532 418.5,244.5C 418.367,233.031 421.034,222.364 426.5,212.5 Z"/></g>
<g><path style="opacity:1" fill="#fdda14" d="M 142.5,289.5 C 119.156,330.87 103.156,374.87 94.5,421.5C 92.9381,425.558 91.7714,429.891 91,434.5C 90.7065,440.867 90.2065,447.2 89.5,453.5C 88.6255,455.69 86.9589,456.69 84.5,456.5C 84.7163,458.681 83.883,460.347 82,461.5C 74.0832,452.074 64.5832,450.074 53.5,455.5C 49.8026,454.434 46.1359,453.268 42.5,452C 41.624,450.414 40.624,448.914 39.5,447.5C 37.3419,448.002 35.0086,448.002 32.5,447.5C 30.3587,447.613 28.5253,448.28 27,449.5C 26.6667,449.167 26.3333,448.833 26,448.5C 25.5045,450.473 25.3379,452.473 25.5,454.5C 21.658,454.761 17.9913,454.094 14.5,452.5C 12.939,453.347 11.439,453.014 10,451.5C 9.66667,452.167 9.33333,452.833 9,453.5C 7.66667,452.833 6.33333,452.167 5,451.5C 4.66667,452.167 4.33333,452.833 4,453.5C 2.86928,446.488 2.03595,439.488 1.5,432.5C 10.0214,361.595 33.0214,295.928 70.5,235.5C 71.5832,235.461 72.5832,235.127 73.5,234.5C 74.1667,232.833 74.8333,231.167 75.5,229.5C 76.7362,230.246 78.0695,230.579 79.5,230.5C 79.5668,228.599 79.2335,226.766 78.5,225C 79.7073,223.7 80.3739,222.2 80.5,220.5C 81.8221,220.67 82.9887,220.337 84,219.5C 83.9024,214.008 85.9024,213.008 90,216.5C 91.2669,224.062 91.9336,231.729 92,239.5C 93,243.833 94,248.167 95,252.5C 98.6667,257.5 102.333,262.5 106,267.5C 117.352,277.008 130.352,280.341 145,277.5C 145.345,279.201 144.678,280.534 143,281.5C 142.503,284.146 142.336,286.813 142.5,289.5 Z"/></g>
<g><path style="opacity:1" fill="#f9d820" d="M 894.5,213.5 C 907.819,231.529 919.153,250.862 928.5,271.5C 926.817,270.339 924.984,269.339 923,268.5C 920.109,271.146 918.276,270.479 917.5,266.5C 916.167,266.5 914.833,266.5 913.5,266.5C 913.15,262.946 913.816,259.612 915.5,256.5C 910.608,254.187 905.608,252.02 900.5,250C 898.978,247.695 896.978,246.195 894.5,245.5C 894.09,249.721 891.756,252.221 887.5,253C 881.431,253.804 875.431,253.471 869.5,252C 866.326,247.096 863.993,247.429 862.5,253C 858.5,253.667 854.5,253.667 850.5,253C 845.562,252.728 842.396,250.228 841,245.5C 840.427,241.152 839.76,236.819 839,232.5C 837.16,234.84 834.993,236.84 832.5,238.5C 837.441,241.977 839.108,246.31 837.5,251.5C 834.562,252.489 831.562,253.156 828.5,253.5C 828.662,255.527 828.495,257.527 828,259.5C 826.412,257.032 824.578,256.866 822.5,259C 823.512,262.196 824.678,265.363 826,268.5C 827.011,267.663 828.178,267.33 829.5,267.5C 830.522,271.029 832.855,273.529 836.5,275C 838.257,277.846 840.257,280.512 842.5,283C 840.963,284.11 840.297,285.61 840.5,287.5C 839.448,287.351 838.448,287.517 837.5,288C 837.996,289.996 838.996,291.663 840.5,293C 839.944,293.383 839.611,293.883 839.5,294.5C 823.186,267.177 804.52,241.51 783.5,217.5C 784.822,217.67 785.989,217.337 787,216.5C 787.333,217.833 787.667,219.167 788,220.5C 792.019,221.11 796.185,222.443 800.5,224.5C 802.1,228.801 803.6,233.135 805,237.5C 805.368,238.91 806.201,239.91 807.5,240.5C 808.892,223.143 817.892,217.476 834.5,223.5C 835.478,223.023 836.311,222.357 837,221.5C 838.202,223.677 838.702,226.011 838.5,228.5C 842.838,228.378 843.172,228.045 839.5,227.5C 838.79,224.14 840.124,222.307 843.5,222C 841.956,221.71 840.623,221.044 839.5,220C 841.074,218.174 841.907,216.007 842,213.5C 845.278,210.203 849.111,209.536 853.5,211.5C 853.351,212.552 853.517,213.552 854,214.5C 854.333,214.167 854.667,213.833 855,213.5C 855.44,215.076 856.273,216.41 857.5,217.5C 860.166,218.039 862.333,219.372 864,221.5C 863.021,223.279 863.354,224.945 865,226.5C 870.751,219.963 877.918,217.796 886.5,220C 890,222.833 893.167,226 896,229.5C 896.622,227.269 897.789,225.435 899.5,224C 898.833,223 898.167,222 897.5,221C 895.343,220.922 893.343,220.755 891.5,220.5C 893.854,218.754 894.854,216.421 894.5,213.5 Z"/></g>
<g><path style="opacity:1" fill="#fdd914" d="M 928.5,271.5 C 952.235,317.713 967.568,366.713 974.5,418.5C 974.817,421.572 974.484,424.572 973.5,427.5C 950.408,422.38 931.074,428.714 915.5,446.5C 903.434,470.2 908.101,489.7 929.5,505C 939.02,509.262 949.02,510.596 959.5,509C 966.223,506.893 972.889,504.726 979.5,502.5C 979.5,509.167 979.5,515.833 979.5,522.5C 978.087,539.29 975.754,555.957 972.5,572.5C 971.174,576.959 969.34,581.293 967,585.5C 967.057,592.743 966.057,599.743 964,606.5C 961.258,608.047 960.758,610.214 962.5,613C 960.177,621.459 958.177,629.959 956.5,638.5C 952.187,654.107 946.52,669.107 939.5,683.5C 937.797,684.66 937.131,683.993 937.5,681.5C 936.5,681.5 935.5,681.5 934.5,681.5C 934.838,678.843 934.171,676.51 932.5,674.5C 929.619,677.856 929.952,680.856 933.5,683.5C 930.739,686.301 928.239,689.301 926,692.5C 924.471,691.271 923.304,689.771 922.5,688C 915.712,686.232 908.879,686.066 902,687.5C 899.685,691.004 897.519,694.671 895.5,698.5C 893.893,694.838 892.393,691.171 891,687.5C 889.927,688.28 888.76,688.113 887.5,687C 882.167,686.333 876.833,686.333 871.5,687C 869.376,688.122 867.543,689.622 866,691.5C 864.493,690.495 863.327,689.162 862.5,687.5C 860.5,686.833 858.5,686.167 856.5,685.5C 855.42,683.004 854.086,680.67 852.5,678.5C 848.304,677.975 846.304,675.641 846.5,671.5C 864.602,634.528 877.269,595.861 884.5,555.5C 885.222,555.082 885.722,554.416 886,553.5C 887.092,547.037 887.926,540.537 888.5,534C 888.498,530.648 888.165,527.482 887.5,524.5C 888.11,523.609 888.443,522.609 888.5,521.5C 889.777,520.306 890.444,518.64 890.5,516.5C 891.783,495.495 891.617,474.495 890,453.5C 889.301,447.591 888.135,441.925 886.5,436.5C 879.257,386.437 863.59,339.103 839.5,294.5C 839.611,293.883 839.944,293.383 840.5,293C 838.996,291.663 837.996,289.996 837.5,288C 838.448,287.517 839.448,287.351 840.5,287.5C 840.297,285.61 840.963,284.11 842.5,283C 840.257,280.512 838.257,277.846 836.5,275C 832.855,273.529 830.522,271.029 829.5,267.5C 828.178,267.33 827.011,267.663 826,268.5C 824.678,265.363 823.512,262.196 822.5,259C 824.578,256.866 826.412,257.032 828,259.5C 828.495,257.527 828.662,255.527 828.5,253.5C 831.562,253.156 834.562,252.489 837.5,251.5C 839.108,246.31 837.441,241.977 832.5,238.5C 834.993,236.84 837.16,234.84 839,232.5C 839.76,236.819 840.427,241.152 841,245.5C 842.396,250.228 845.562,252.728 850.5,253C 854.5,253.667 858.5,253.667 862.5,253C 863.993,247.429 866.326,247.096 869.5,252C 875.431,253.471 881.431,253.804 887.5,253C 891.756,252.221 894.09,249.721 894.5,245.5C 896.978,246.195 898.978,247.695 900.5,250C 905.608,252.02 910.608,254.187 915.5,256.5C 913.816,259.612 913.15,262.946 913.5,266.5C 914.833,266.5 916.167,266.5 917.5,266.5C 918.276,270.479 920.109,271.146 923,268.5C 924.984,269.339 926.817,270.339 928.5,271.5 Z"/></g>
<g><path style="opacity:1" fill="#f8d615" d="M 140.5,208.5 C 143.909,208.249 147.242,208.583 150.5,209.5C 156.183,214.843 158.85,221.51 158.5,229.5C 160.523,231.173 162.856,231.84 165.5,231.5C 165.5,234.167 165.5,236.833 165.5,239.5C 162.482,239.335 159.482,239.502 156.5,240C 153.931,247.686 149.931,254.519 144.5,260.5C 135.033,264.958 128.033,262.624 123.5,253.5C 122.738,244.175 122.072,234.842 121.5,225.5C 118.167,225.5 114.833,225.5 111.5,225.5C 111.5,222.833 111.5,220.167 111.5,217.5C 119.595,215.463 125.595,217.963 129.5,225C 130.284,232.464 130.784,239.964 131,247.5C 132.864,255.565 136.698,256.565 142.5,250.5C 145.543,246.706 147.21,242.372 147.5,237.5C 144.951,236.491 142.285,235.658 139.5,235C 134.824,228.107 133.657,220.607 136,212.5C 137.992,211.672 139.492,210.339 140.5,208.5 Z"/></g>
<g><path style="opacity:0.814" fill="#f6da40" d="M 558.5,266.5 C 555.44,303.493 552.44,340.493 549.5,377.5C 548.835,373.849 548.501,370.015 548.5,366C 551.226,342.502 553.226,318.836 554.5,295C 552.693,285.26 553.527,275.76 557,266.5C 557.69,265.262 558.19,265.262 558.5,266.5 Z"/></g>
<g><path style="opacity:0.847" fill="#f6d945" d="M 548.5,378.5 C 547.148,400.704 545.148,422.704 542.5,444.5C 542.553,427.962 543.886,411.629 546.5,395.5C 545.007,390.11 545.174,384.777 547,379.5C 547.383,378.944 547.883,378.611 548.5,378.5 Z"/></g>
<g><path style="opacity:1" fill="#fddd2b" d="M 974.5,418.5 C 976.659,431.107 978.326,443.774 979.5,456.5C 979.5,471.833 979.5,487.167 979.5,502.5C 972.889,504.726 966.223,506.893 959.5,509C 949.02,510.596 939.02,509.262 929.5,505C 908.101,489.7 903.434,470.2 915.5,446.5C 931.074,428.714 950.408,422.38 973.5,427.5C 974.484,424.572 974.817,421.572 974.5,418.5 Z"/></g>
<g><path style="opacity:0.275" fill="#f2e063" d="M 439.5,431.5 C 440.124,433.834 440.957,436.167 442,438.5C 443.16,450.819 443.993,463.152 444.5,475.5C 442.263,461.039 440.597,446.372 439.5,431.5 Z"/></g>
<g><path style="opacity:0.561" fill="#f1d955" d="M 94.5,421.5 C 90.1408,451.34 88.4741,481.34 89.5,511.5C 88.2106,492.313 88.2106,472.98 89.5,453.5C 90.2065,447.2 90.7065,440.867 91,434.5C 91.7714,429.891 92.9381,425.558 94.5,421.5 Z"/></g>
<g><path style="opacity:1" fill="#f8d515" d="M 956.5,441.5 C 960.716,441.036 964.216,442.369 967,445.5C 970.796,451.225 972.296,457.558 971.5,464.5C 973.5,464.5 975.5,464.5 977.5,464.5C 977.5,467.167 977.5,469.833 977.5,472.5C 974.833,472.5 972.167,472.5 969.5,472.5C 968.559,481.456 964.559,488.789 957.5,494.5C 948.785,497.705 942.285,495.372 938,487.5C 936.796,479.228 936.129,470.894 936,462.5C 933.056,460.229 929.722,458.895 926,458.5C 925.503,455.854 925.336,453.187 925.5,450.5C 931.53,449.618 936.863,450.951 941.5,454.5C 942.251,455.376 942.751,456.376 943,457.5C 943.874,466.484 944.541,475.484 945,484.5C 947.204,487.202 950.037,488.035 953.5,487C 958.297,482.771 960.297,477.604 959.5,471.5C 950.079,466.818 946.746,459.318 949.5,449C 951.054,445.643 953.387,443.143 956.5,441.5 Z"/></g>
<g><path style="opacity:1" fill="#fad920" d="M 1.5,432.5 C 2.03595,439.488 2.86928,446.488 4,453.5C 4.33333,452.833 4.66667,452.167 5,451.5C 6.33333,452.167 7.66667,452.833 9,453.5C 9.33333,452.833 9.66667,452.167 10,451.5C 11.439,453.014 12.939,453.347 14.5,452.5C 17.9913,454.094 21.658,454.761 25.5,454.5C 25.3379,452.473 25.5045,450.473 26,448.5C 26.3333,448.833 26.6667,449.167 27,449.5C 28.5253,448.28 30.3587,447.613 32.5,447.5C 35.0086,448.002 37.3419,448.002 39.5,447.5C 40.624,448.914 41.624,450.414 42.5,452C 46.1359,453.268 49.8026,454.434 53.5,455.5C 64.5832,450.074 74.0832,452.074 82,461.5C 83.883,460.347 84.7163,458.681 84.5,456.5C 86.9589,456.69 88.6255,455.69 89.5,453.5C 88.2106,472.98 88.2106,492.313 89.5,511.5C 91.4068,536.289 95.0734,560.955 100.5,585.5C 99.5041,585.586 98.6708,585.252 98,584.5C 97.8846,579.195 96.7179,574.195 94.5,569.5C 93.5,569.5 92.5,569.5 91.5,569.5C 91.5086,567.692 91.0086,566.025 90,564.5C 89.3678,566.531 88.2012,568.198 86.5,569.5C 85.8333,568.833 85.1667,568.167 84.5,567.5C 83.7065,555.496 82.8732,543.496 82,531.5C 81.1277,542.087 79.961,542.087 78.5,531.5C 78.3898,529.626 79.0564,528.126 80.5,527C 79.2404,525.186 79.2404,523.353 80.5,521.5C 81.1667,523.5 81.8333,525.5 82.5,527.5C 83.086,527.291 83.586,526.957 84,526.5C 84.4993,522.984 84.3326,519.484 83.5,516C 83.5757,513.262 84.5757,510.928 86.5,509C 84.7442,501.585 84.2442,494.085 85,486.5C 85.3333,488.5 85.6667,490.5 86,492.5C 86.2511,490.567 86.7511,488.734 87.5,487C 85.1758,482.529 82.6758,478.029 80,473.5C 80.1411,476.718 79.8078,480.052 79,483.5C 75.9225,485.696 72.4225,487.03 68.5,487.5C 62.0184,486.628 55.685,485.294 49.5,483.5C 49.6495,482.448 49.4828,481.448 49,480.5C 48.187,482.436 47.687,484.436 47.5,486.5C 31.4987,489.165 24.8321,482.499 27.5,466.5C 26.6533,465.155 25.4866,464.155 24,463.5C 23.3333,466.167 22.6667,466.167 22,463.5C 20.6218,465.213 18.9552,466.547 17,467.5C 16.0853,466.672 15.4186,465.672 15,464.5C 14.6667,465.167 14.3333,465.833 14,466.5C 13.7351,464.349 12.7351,462.682 11,461.5C 8.56667,462.479 6.06667,463.145 3.5,463.5C 0.595826,476.267 5.26249,480.6 17.5,476.5C 22.3081,477.955 22.6415,480.121 18.5,483C 12.2156,484.829 5.88226,484.996 -0.5,483.5C -0.5,473.833 -0.5,464.167 -0.5,454.5C 0.615891,447.354 1.28256,440.02 1.5,432.5 Z"/></g>
<g><path style="opacity:1" fill="#fad81f" d="M 542.5,444.5 C 541.139,466.524 539.473,488.524 537.5,510.5C 536.027,507.983 535.36,505.15 535.5,502C 535.913,498.804 536.08,495.638 536,492.5C 534.54,495.488 533.206,498.488 532,501.5C 530.913,498.067 530.413,494.734 530.5,491.5C 525.26,491.426 519.926,491.259 514.5,491C 511.087,488.298 507.42,486.131 503.5,484.5C 503.36,482.876 504.027,481.71 505.5,481C 500.887,476.069 499.72,470.569 502,464.5C 501.333,465.167 500.667,465.833 500,466.5C 498.973,473.131 496.806,479.298 493.5,485C 491.324,485.163 489.491,485.996 488,487.5C 486.333,486.167 484.667,486.167 483,487.5C 480.667,486.5 479,484.833 478,482.5C 475.197,474.422 472.197,466.422 469,458.5C 467.929,454.796 467.762,451.129 468.5,447.5C 471.768,446.513 475.102,446.18 478.5,446.5C 479.467,456.236 481.967,465.569 486,474.5C 488.192,471.449 489.859,468.116 491,464.5C 491.488,458.382 492.988,452.548 495.5,447C 498.562,446.259 501.562,446.425 504.5,447.5C 505.415,448.328 506.081,449.328 506.5,450.5C 504.977,452.586 505.31,454.252 507.5,455.5C 513.67,452.37 520.17,451.703 527,453.5C 528.425,456.198 530.425,456.864 533,455.5C 533.539,458.529 534.206,461.529 535,464.5C 535.333,463.167 535.667,461.833 536,460.5C 537.714,461.925 539.047,461.592 540,459.5C 539.882,454.067 540.715,449.067 542.5,444.5 Z"/></g>
<g><path style="opacity:0.94" fill="#f9dc3d" d="M 886.5,436.5 C 888.135,441.925 889.301,447.591 890,453.5C 891.617,474.495 891.783,495.495 890.5,516.5C 890.444,518.64 889.777,520.306 888.5,521.5C 890.157,493.11 889.49,464.776 886.5,436.5 Z"/></g>
<g><path style="opacity:1" fill="#f4dd54" d="M 444.5,476.5 C 446.236,486.68 447.903,497.014 449.5,507.5C 450.497,514.134 450.83,520.8 450.5,527.5C 448.076,510.69 446.076,493.69 444.5,476.5 Z"/></g>
<g><path style="opacity:1" fill="#f7db42" d="M 450.5,527.5 C 451.586,527.62 452.253,528.287 452.5,529.5C 454.164,543.107 455.164,556.774 455.5,570.5C 453.277,556.371 451.61,542.038 450.5,527.5 Z"/></g>
<g><path style="opacity:0.49" fill="#f2dc4f" d="M 887.5,524.5 C 888.165,527.482 888.498,530.648 888.5,534C 887.926,540.537 887.092,547.037 886,553.5C 885.722,554.416 885.222,555.082 884.5,555.5C 885.911,545.208 886.911,534.874 887.5,524.5 Z"/></g>
<g><path style="opacity:1" fill="#f8da39" d="M 536.5,511.5 C 534.074,548.726 530.741,585.726 526.5,622.5C 526.333,608.496 526.5,594.496 527,580.5C 528.306,579.088 529.14,577.421 529.5,575.5C 529.039,572.784 528.373,570.118 527.5,567.5C 529.245,562.021 530.911,556.521 532.5,551C 532.259,547.217 531.592,543.55 530.5,540C 531.022,539.439 531.355,538.772 531.5,538C 530.402,535.54 529.402,533.04 528.5,530.5C 530.701,526.778 532.535,527.111 534,531.5C 533.867,524.425 534.7,517.758 536.5,511.5 Z"/></g>
<g><path style="opacity:0.165" fill="#f1df5f" d="M 455.5,571.5 C 457.867,579.532 458.867,587.865 458.5,596.5C 456.856,588.382 455.856,580.049 455.5,571.5 Z"/></g>
<g><path style="opacity:1" fill="#f6da3e" d="M 972.5,572.5 C 969.34,595.136 964.007,617.136 956.5,638.5C 958.177,629.959 960.177,621.459 962.5,613C 960.758,610.214 961.258,608.047 964,606.5C 966.057,599.743 967.057,592.743 967,585.5C 969.34,581.293 971.174,576.959 972.5,572.5 Z"/></g>
<g><path style="opacity:1" fill="#fcdb27" d="M 113.5,628.5 C 128.029,664.901 146.696,698.901 169.5,730.5C 166.275,731.95 163.608,734.117 161.5,737C 141.797,747.245 123.463,745.245 106.5,731C 90.1974,711.003 90.6974,691.503 108,672.5C 112.594,669.236 117.427,666.402 122.5,664C 120.096,661.497 118.429,658.497 117.5,655C 119.563,653.765 120.563,651.931 120.5,649.5C 118.516,644.801 116.349,640.134 114,635.5C 113.503,633.19 113.337,630.857 113.5,628.5 Z"/></g>
<g><path style="opacity:1" fill="#f9d71f" d="M 846.5,671.5 C 846.304,675.641 848.304,677.975 852.5,678.5C 854.086,680.67 855.42,683.004 856.5,685.5C 858.5,686.167 860.5,686.833 862.5,687.5C 863.327,689.162 864.493,690.495 866,691.5C 867.543,689.622 869.376,688.122 871.5,687C 876.833,686.333 882.167,686.333 887.5,687C 888.76,688.113 889.927,688.28 891,687.5C 892.393,691.171 893.893,694.838 895.5,698.5C 897.519,694.671 899.685,691.004 902,687.5C 908.879,686.066 915.712,686.232 922.5,688C 923.304,689.771 924.471,691.271 926,692.5C 928.239,689.301 930.739,686.301 933.5,683.5C 929.952,680.856 929.619,677.856 932.5,674.5C 934.171,676.51 934.838,678.843 934.5,681.5C 935.5,681.5 936.5,681.5 937.5,681.5C 937.131,683.993 937.797,684.66 939.5,683.5C 932.396,701.709 923.729,719.042 913.5,735.5C 913.643,733.738 913.309,732.071 912.5,730.5C 913.325,729.614 914.325,729.281 915.5,729.5C 915.5,728.167 915.5,726.833 915.5,725.5C 916.5,725.5 917.5,725.5 918.5,725.5C 919.067,722.529 920.067,719.695 921.5,717C 919.171,716.49 917.171,717.156 915.5,719C 915.833,719.333 916.167,719.667 916.5,720C 915.333,721.167 914.167,722.333 913,723.5C 912.5,722.333 911.667,721.5 910.5,721C 903.632,721.067 898.965,717.9 896.5,711.5C 893.105,718.539 887.438,721.872 879.5,721.5C 873.916,721.566 869.249,719.566 865.5,715.5C 864.158,717.342 862.491,718.842 860.5,720C 854.395,721.16 848.728,720.16 843.5,717C 842.228,715.693 841.228,714.193 840.5,712.5C 838.473,715.194 836.139,717.527 833.5,719.5C 831.726,719.887 830.059,720.553 828.5,721.5C 825.953,720.451 823.786,719.118 822,717.5C 820.795,718.071 819.628,718.738 818.5,719.5C 819.711,720.72 819.711,721.887 818.5,723C 816.593,724.122 814.593,724.955 812.5,725.5C 824.848,708.138 836.181,690.138 846.5,671.5 Z"/></g>
<g><path style="opacity:1" fill="#fdda13" d="M 513.5,690.5 C 513.833,690.5 514.167,690.5 514.5,690.5C 516.601,692.488 519.101,694.155 522,695.5C 522.311,696.742 521.811,697.742 520.5,698.5C 522.672,699.205 524.672,700.205 526.5,701.5C 527.891,700.355 529.224,700.355 530.5,701.5C 531.747,703.323 532.414,705.323 532.5,707.5C 533.5,707.5 534.5,707.5 535.5,707.5C 535.167,710.5 536.5,711.833 539.5,711.5C 539.343,712.873 539.51,714.207 540,715.5C 541.281,715.381 542.448,715.881 543.5,717C 542.724,718.77 542.89,720.603 544,722.5C 544.743,720.355 545.576,720.189 546.5,722C 548.265,726.365 549.098,730.865 549,735.5C 548.667,735.167 548.333,734.833 548,734.5C 547.952,737.329 546.952,739.663 545,741.5C 544.667,740.167 544.333,738.833 544,737.5C 543.131,739.581 542.631,741.747 542.5,744C 543.39,746.784 543.557,749.617 543,752.5C 544.439,754.014 545.939,754.347 547.5,753.5C 545.51,750.111 545.01,746.444 546,742.5C 547.131,747.069 548.631,751.569 550.5,756C 548.812,761.251 547.146,766.418 545.5,771.5C 542.525,771.307 540.025,772.307 538,774.5C 536.677,771.104 534.511,768.437 531.5,766.5C 530.417,767.365 530.251,768.365 531,769.5C 532.914,770.414 534.081,771.914 534.5,774C 533.796,777.128 533.296,780.294 533,783.5C 532.5,784 532,784.5 531.5,785C 532.973,785.71 533.64,786.876 533.5,788.5C 531.876,788.36 530.71,789.027 530,790.5C 529.667,790.167 529.333,789.833 529,789.5C 528.193,793.449 527.693,793.449 527.5,789.5C 526.022,789.238 524.689,789.571 523.5,790.5C 523.277,791.967 522.944,793.467 522.5,795C 521.207,795.49 519.873,795.657 518.5,795.5C 518.5,796.5 518.5,797.5 518.5,798.5C 516.801,798.34 515.134,798.506 513.5,799C 513.833,799.333 514.167,799.667 514.5,800C 512.256,800.05 510.589,800.883 509.5,802.5C 476.339,809.336 452.506,797.336 438,766.5C 434.043,754.843 433.543,743.177 436.5,731.5C 437.222,731.082 437.722,730.416 438,729.5C 438.284,731.886 439.284,732.552 441,731.5C 441.693,727.164 442.86,722.998 444.5,719C 443.978,718.439 443.645,717.772 443.5,717C 444.581,715.629 445.415,714.129 446,712.5C 446.324,714.569 447.158,714.902 448.5,713.5C 449.59,712.609 449.59,711.609 448.5,710.5C 450.056,708.299 451.223,708.299 452,710.5C 453.264,710.36 454.431,710.36 455.5,710.5C 454.5,711.333 453.5,712.167 452.5,713C 456.462,713.375 457.795,711.708 456.5,708C 456.903,706.527 457.57,705.194 458.5,704C 456,703.167 455.833,702 458,700.5C 458.333,700.833 458.667,701.167 459,701.5C 459.29,699.956 459.956,698.623 461,697.5C 462.962,697.031 464.795,697.697 466.5,699.5C 468.481,698.895 468.815,697.895 467.5,696.5C 468.167,695.5 468.833,694.5 469.5,693.5C 473.041,691.568 476.707,690.068 480.5,689C 489.186,688.168 497.853,688.335 506.5,689.5C 507,690.881 508,691.547 509.5,691.5C 510.849,691.154 512.183,690.821 513.5,690.5 Z"/></g>
<g><path style="opacity:1" fill="#f8d930" d="M 513.5,690.5 C 512.183,690.821 510.849,691.154 509.5,691.5C 508,691.547 507,690.881 506.5,689.5C 497.853,688.335 489.186,688.168 480.5,689C 476.707,690.068 473.041,691.568 469.5,693.5C 468.833,694.5 468.167,695.5 467.5,696.5C 468.815,697.895 468.481,698.895 466.5,699.5C 464.795,697.697 462.962,697.031 461,697.5C 459.956,698.623 459.29,699.956 459,701.5C 458.667,701.167 458.333,700.833 458,700.5C 455.833,702 456,703.167 458.5,704C 457.57,705.194 456.903,706.527 456.5,708C 457.795,711.708 456.462,713.375 452.5,713C 453.5,712.167 454.5,711.333 455.5,710.5C 454.431,710.36 453.264,710.36 452,710.5C 451.223,708.299 450.056,708.299 448.5,710.5C 449.59,711.609 449.59,712.609 448.5,713.5C 447.158,714.902 446.324,714.569 446,712.5C 445.415,714.129 444.581,715.629 443.5,717C 443.645,717.772 443.978,718.439 444.5,719C 442.86,722.998 441.693,727.164 441,731.5C 439.284,732.552 438.284,731.886 438,729.5C 437.722,730.416 437.222,731.082 436.5,731.5C 443.324,706.845 459.324,692.012 484.5,687C 490.5,686.333 496.5,686.333 502.5,687C 506.529,687.416 510.196,688.583 513.5,690.5 Z"/></g>
<g><path style="opacity:1" fill="#fdd914" d="M 100.5,585.5 C 104.659,599.781 108.992,614.114 113.5,628.5C 113.337,630.857 113.503,633.19 114,635.5C 116.349,640.134 118.516,644.801 120.5,649.5C 120.563,651.931 119.563,653.765 117.5,655C 118.429,658.497 120.096,661.497 122.5,664C 117.427,666.402 112.594,669.236 108,672.5C 90.6974,691.503 90.1974,711.003 106.5,731C 123.463,745.245 141.797,747.245 161.5,737C 163.608,734.117 166.275,731.95 169.5,730.5C 231.775,810.046 312.442,860.712 411.5,882.5C 414.748,884.239 418.414,885.406 422.5,886C 437.464,887.696 452.464,888.863 467.5,889.5C 467.833,889.5 468.167,889.5 468.5,889.5C 491.377,890.933 514.377,890.433 537.5,888C 538.737,887.768 539.737,887.268 540.5,886.5C 653.474,869.71 744.14,816.043 812.5,725.5C 814.593,724.955 816.593,724.122 818.5,723C 819.711,721.887 819.711,720.72 818.5,719.5C 819.628,718.738 820.795,718.071 822,717.5C 823.786,719.118 825.953,720.451 828.5,721.5C 830.059,720.553 831.726,719.887 833.5,719.5C 836.139,717.527 838.473,715.194 840.5,712.5C 841.228,714.193 842.228,715.693 843.5,717C 848.728,720.16 854.395,721.16 860.5,720C 862.491,718.842 864.158,717.342 865.5,715.5C 869.249,719.566 873.916,721.566 879.5,721.5C 887.438,721.872 893.105,718.539 896.5,711.5C 898.965,717.9 903.632,721.067 910.5,721C 911.667,721.5 912.5,722.333 913,723.5C 914.167,722.333 915.333,721.167 916.5,720C 916.167,719.667 915.833,719.333 915.5,719C 917.171,717.156 919.171,716.49 921.5,717C 920.067,719.695 919.067,722.529 918.5,725.5C 917.5,725.5 916.5,725.5 915.5,725.5C 915.5,726.833 915.5,728.167 915.5,729.5C 914.325,729.281 913.325,729.614 912.5,730.5C 913.309,732.071 913.643,733.738 913.5,735.5C 862.446,821.552 792.113,886.886 702.5,931.5C 700.188,929.055 698.854,926.055 698.5,922.5C 696.809,920.561 694.642,919.561 692,919.5C 681.004,919.977 669.837,920.477 658.5,921C 656.277,921.652 655.11,923.152 655,925.5C 649.51,920.227 643.01,918.394 635.5,920C 631.251,922.281 627.251,924.781 623.5,927.5C 623.881,925.058 623.214,924.391 621.5,925.5C 618.423,922.045 614.59,920.045 610,919.5C 604.626,920.271 599.459,921.605 594.5,923.5C 592.853,922.722 591.52,921.556 590.5,920C 586.386,919.106 582.719,917.439 579.5,915C 581.044,914.71 582.377,914.044 583.5,913C 573.987,908.419 568.654,911.086 567.5,921C 565.899,921.273 564.399,921.773 563,922.5C 560.025,920.678 556.692,919.678 553,919.5C 549.161,920.787 545.328,920.787 541.5,919.5C 539.912,920.01 538.745,921.01 538,922.5C 538.623,924.985 537.623,926.985 535,928.5C 533.285,926.241 531.452,924.074 529.5,922C 514.407,916.333 505.074,921.166 501.5,936.5C 501.889,948.048 507.889,954.381 519.5,955.5C 523.242,954.985 526.909,954.152 530.5,953C 533.48,949.953 534.147,946.453 532.5,942.5C 533.365,941.417 534.365,941.251 535.5,942C 535.167,942.333 534.833,942.667 534.5,943C 536.833,948 540.5,951.667 545.5,954C 551.504,954.3 557.504,954.134 563.5,953.5C 563.872,950.383 563.872,947.383 563.5,944.5C 562.833,944.167 562.167,943.833 561.5,943.5C 557.67,945.312 553.67,945.812 549.5,945C 544.516,940.256 544.183,935.089 548.5,929.5C 550.833,928.167 553.167,928.167 555.5,929.5C 556.246,930.736 556.579,932.07 556.5,933.5C 559.448,933.777 562.281,933.444 565,932.5C 566.791,934.513 568.125,934.513 569,932.5C 569.227,937.897 569.894,943.231 571,948.5C 571.943,951.109 573.61,953.109 576,954.5C 580.955,954.398 586.122,954.398 591.5,954.5C 591.5,953.5 591.5,952.5 591.5,951.5C 597.235,951.668 602.901,953.002 608.5,955.5C 611.993,954.247 615.66,953.413 619.5,953C 620.833,952.333 621.833,951.333 622.5,950C 623.5,949.833 624.5,949.667 625.5,949.5C 628.432,951.654 631.766,953.154 635.5,954C 634.244,954.417 633.577,955.25 633.5,956.5C 623.153,960.589 612.487,963.755 601.5,966C 598.287,966.703 595.121,966.536 592,965.5C 588.726,967.697 585.226,968.364 581.5,967.5C 579.493,968.171 577.66,969.171 576,970.5C 574.527,970.097 573.194,969.43 572,968.5C 571.021,970.32 569.521,971.487 567.5,972C 559.904,973.439 552.571,974.939 545.5,976.5C 538.833,977.5 532.167,978.5 525.5,979.5C 502.167,979.5 478.833,979.5 455.5,979.5C 448.263,978.504 440.93,977.504 433.5,976.5C 430.411,975.215 427.078,974.549 423.5,974.5C 438.29,969.527 446.79,959.193 449,943.5C 450.388,931.162 449.054,919.162 445,907.5C 442.861,904.061 440.361,900.894 437.5,898C 414.056,887.857 393.39,892.023 375.5,910.5C 366.151,922.57 363.818,936.07 368.5,951C 370.744,955.866 373.744,960.199 377.5,964C 374.305,964.181 371.305,964.681 368.5,965.5C 231.442,927.578 127.942,846.911 58,723.5C 24.4037,661.221 4.90374,594.887 -0.5,524.5C -0.5,510.833 -0.5,497.167 -0.5,483.5C 5.88226,484.996 12.2156,484.829 18.5,483C 22.6415,480.121 22.3081,477.955 17.5,476.5C 5.26249,480.6 0.595826,476.267 3.5,463.5C 6.06667,463.145 8.56667,462.479 11,461.5C 12.7351,462.682 13.7351,464.349 14,466.5C 14.3333,465.833 14.6667,465.167 15,464.5C 15.4186,465.672 16.0853,466.672 17,467.5C 18.9552,466.547 20.6218,465.213 22,463.5C 22.6667,466.167 23.3333,466.167 24,463.5C 25.4866,464.155 26.6533,465.155 27.5,466.5C 24.8321,482.499 31.4987,489.165 47.5,486.5C 47.687,484.436 48.187,482.436 49,480.5C 49.4828,481.448 49.6495,482.448 49.5,483.5C 55.685,485.294 62.0184,486.628 68.5,487.5C 72.4225,487.03 75.9225,485.696 79,483.5C 79.8078,480.052 80.1411,476.718 80,473.5C 82.6758,478.029 85.1758,482.529 87.5,487C 86.7511,488.734 86.2511,490.567 86,492.5C 85.6667,490.5 85.3333,488.5 85,486.5C 84.2442,494.085 84.7442,501.585 86.5,509C 84.5757,510.928 83.5757,513.262 83.5,516C 84.3326,519.484 84.4993,522.984 84,526.5C 83.586,526.957 83.086,527.291 82.5,527.5C 81.8333,525.5 81.1667,523.5 80.5,521.5C 79.2404,523.353 79.2404,525.186 80.5,527C 79.0564,528.126 78.3898,529.626 78.5,531.5C 79.961,542.087 81.1277,542.087 82,531.5C 82.8732,543.496 83.7065,555.496 84.5,567.5C 85.1667,568.167 85.8333,568.833 86.5,569.5C 88.2012,568.198 89.3678,566.531 90,564.5C 91.0086,566.025 91.5086,567.692 91.5,569.5C 92.5,569.5 93.5,569.5 94.5,569.5C 96.7179,574.195 97.8846,579.195 98,584.5C 98.6708,585.252 99.5041,585.586 100.5,585.5 Z"/></g>
<g><path style="opacity:1" fill="#fada2a" d="M 514.5,690.5 C 545.174,704.512 557.341,728.179 551,761.5C 544.577,782.757 530.744,796.423 509.5,802.5C 510.589,800.883 512.256,800.05 514.5,800C 514.167,799.667 513.833,799.333 513.5,799C 515.134,798.506 516.801,798.34 518.5,798.5C 518.5,797.5 518.5,796.5 518.5,795.5C 519.873,795.657 521.207,795.49 522.5,795C 522.944,793.467 523.277,791.967 523.5,790.5C 524.689,789.571 526.022,789.238 527.5,789.5C 527.693,793.449 528.193,793.449 529,789.5C 529.333,789.833 529.667,790.167 530,790.5C 530.71,789.027 531.876,788.36 533.5,788.5C 533.64,786.876 532.973,785.71 531.5,785C 532,784.5 532.5,784 533,783.5C 533.296,780.294 533.796,777.128 534.5,774C 534.081,771.914 532.914,770.414 531,769.5C 530.251,768.365 530.417,767.365 531.5,766.5C 534.511,768.437 536.677,771.104 538,774.5C 540.025,772.307 542.525,771.307 545.5,771.5C 547.146,766.418 548.812,761.251 550.5,756C 548.631,751.569 547.131,747.069 546,742.5C 545.01,746.444 545.51,750.111 547.5,753.5C 545.939,754.347 544.439,754.014 543,752.5C 543.557,749.617 543.39,746.784 542.5,744C 542.631,741.747 543.131,739.581 544,737.5C 544.333,738.833 544.667,740.167 545,741.5C 546.952,739.663 547.952,737.329 548,734.5C 548.333,734.833 548.667,735.167 549,735.5C 549.098,730.865 548.265,726.365 546.5,722C 545.576,720.189 544.743,720.355 544,722.5C 542.89,720.603 542.724,718.77 543.5,717C 542.448,715.881 541.281,715.381 540,715.5C 539.51,714.207 539.343,712.873 539.5,711.5C 536.5,711.833 535.167,710.5 535.5,707.5C 534.5,707.5 533.5,707.5 532.5,707.5C 532.414,705.323 531.747,703.323 530.5,701.5C 529.224,700.355 527.891,700.355 526.5,701.5C 524.672,700.205 522.672,699.205 520.5,698.5C 521.811,697.742 522.311,696.742 522,695.5C 519.101,694.155 516.601,692.488 514.5,690.5 Z"/></g>
<g><path style="opacity:0.349" fill="#f2da52" d="M 411.5,882.5 C 430.242,885.343 448.909,887.676 467.5,889.5C 452.464,888.863 437.464,887.696 422.5,886C 418.414,885.406 414.748,884.239 411.5,882.5 Z"/></g>
<g><path style="opacity:0.247" fill="#f4db52" d="M 540.5,886.5 C 539.737,887.268 538.737,887.768 537.5,888C 514.377,890.433 491.377,890.933 468.5,889.5C 492.573,890.022 516.573,889.022 540.5,886.5 Z"/></g>
<g><path style="opacity:1" fill="#fddd2a" d="M 423.5,974.5 C 417.869,973.203 412.202,972.036 406.5,971C 402.642,970.19 398.976,970.357 395.5,971.5C 386.56,969.349 377.56,967.349 368.5,965.5C 371.305,964.681 374.305,964.181 377.5,964C 373.744,960.199 370.744,955.866 368.5,951C 363.818,936.07 366.151,922.57 375.5,910.5C 393.39,892.023 414.056,887.857 437.5,898C 440.361,900.894 442.861,904.061 445,907.5C 449.054,919.162 450.388,931.162 449,943.5C 446.79,959.193 438.29,969.527 423.5,974.5 Z"/></g>
<g><path style="opacity:1" fill="#fad81f" d="M 702.5,931.5 C 681.949,941.796 660.615,950.129 638.5,956.5C 636.833,956.5 635.167,956.5 633.5,956.5C 633.577,955.25 634.244,954.417 635.5,954C 631.766,953.154 628.432,951.654 625.5,949.5C 624.5,949.667 623.5,949.833 622.5,950C 621.833,951.333 620.833,952.333 619.5,953C 615.66,953.413 611.993,954.247 608.5,955.5C 602.901,953.002 597.235,951.668 591.5,951.5C 591.5,952.5 591.5,953.5 591.5,954.5C 586.122,954.398 580.955,954.398 576,954.5C 573.61,953.109 571.943,951.109 571,948.5C 569.894,943.231 569.227,937.897 569,932.5C 568.125,934.513 566.791,934.513 565,932.5C 562.281,933.444 559.448,933.777 556.5,933.5C 556.579,932.07 556.246,930.736 555.5,929.5C 553.167,928.167 550.833,928.167 548.5,929.5C 544.183,935.089 544.516,940.256 549.5,945C 553.67,945.812 557.67,945.312 561.5,943.5C 562.167,943.833 562.833,944.167 563.5,944.5C 563.872,947.383 563.872,950.383 563.5,953.5C 557.504,954.134 551.504,954.3 545.5,954C 540.5,951.667 536.833,948 534.5,943C 534.833,942.667 535.167,942.333 535.5,942C 534.365,941.251 533.365,941.417 532.5,942.5C 534.147,946.453 533.48,949.953 530.5,953C 526.909,954.152 523.242,954.985 519.5,955.5C 507.889,954.381 501.889,948.048 501.5,936.5C 505.074,921.166 514.407,916.333 529.5,922C 531.452,924.074 533.285,926.241 535,928.5C 537.623,926.985 538.623,924.985 538,922.5C 538.745,921.01 539.912,920.01 541.5,919.5C 545.328,920.787 549.161,920.787 553,919.5C 556.692,919.678 560.025,920.678 563,922.5C 564.399,921.773 565.899,921.273 567.5,921C 568.654,911.086 573.987,908.419 583.5,913C 582.377,914.044 581.044,914.71 579.5,915C 582.719,917.439 586.386,919.106 590.5,920C 591.52,921.556 592.853,922.722 594.5,923.5C 599.459,921.605 604.626,920.271 610,919.5C 614.59,920.045 618.423,922.045 621.5,925.5C 623.214,924.391 623.881,925.058 623.5,927.5C 627.251,924.781 631.251,922.281 635.5,920C 643.01,918.394 649.51,920.227 655,925.5C 655.11,923.152 656.277,921.652 658.5,921C 669.837,920.477 681.004,919.977 692,919.5C 694.642,919.561 696.809,920.561 698.5,922.5C 698.854,926.055 700.188,929.055 702.5,931.5 Z"/></g>
<g><path style="opacity:1" fill="#f8d615" d="M 412.5,909.5 C 418.801,908.314 423.634,910.314 427,915.5C 428.397,920.708 428.897,926.041 428.5,931.5C 431.167,931.5 433.833,931.5 436.5,931.5C 436.5,934.167 436.5,936.833 436.5,939.5C 433.167,939.5 429.833,939.5 426.5,939.5C 425.594,946.979 422.761,953.645 418,959.5C 408.498,965.955 400.831,964.289 395,954.5C 393.756,945.909 393.089,937.242 393,928.5C 390.456,925.899 387.29,924.899 383.5,925.5C 383.5,922.833 383.5,920.167 383.5,917.5C 393.56,915.608 399.727,919.608 402,929.5C 402.333,936.833 402.667,944.167 403,951.5C 403.374,952.416 403.874,953.25 404.5,954C 407.721,954.797 410.721,954.297 413.5,952.5C 415.568,947.963 417.234,943.297 418.5,938.5C 416.304,938.435 414.304,937.768 412.5,936.5C 405.558,929.958 404.058,922.291 408,913.5C 409.397,911.93 410.897,910.596 412.5,909.5 Z"/></g>
<g><path style="opacity:1" fill="#f6d93d" d="M 633.5,956.5 C 635.167,956.5 636.833,956.5 638.5,956.5C 608.394,966.772 577.394,973.439 545.5,976.5C 552.571,974.939 559.904,973.439 567.5,972C 569.521,971.487 571.021,970.32 572,968.5C 573.194,969.43 574.527,970.097 576,970.5C 577.66,969.171 579.493,968.171 581.5,967.5C 585.226,968.364 588.726,967.697 592,965.5C 595.121,966.536 598.287,966.703 601.5,966C 612.487,963.755 623.153,960.589 633.5,956.5 Z"/></g>
<g><path style="opacity:0.931" fill="#f3da4f" d="M 395.5,971.5 C 398.976,970.357 402.642,970.19 406.5,971C 412.202,972.036 417.869,973.203 423.5,974.5C 427.078,974.549 430.411,975.215 433.5,976.5C 420.757,975.394 408.091,973.727 395.5,971.5 Z"/></g>
</svg>
